/* XPM */
static char *_e8f6f74fff040e3a775d7debb2b8128WpJhM5b1UTVuuxy1[] = {
/* columns rows colors chars-per-pixel */
"80 80 2 1 ",
"  c None",
". c white",
/* pixels */
"                                      ...  ...                                  ",
"                                  ................                              ",
"                                ......................                          ",
"                              ............................                      ",
"                          ....................................                  ",
"                        ........................................                ",
"                      ...........................................               ",
"                    ..............................................              ",
"                   ...............................................              ",
"                  ..................................................            ",
"                .....................................................           ",
"              ........................................................          ",
"            .............................  .............................        ",
"           ..........................          ..........................       ",
"          .........................                .......................      ",
"          .......................                      ...................      ",
"         ....................                              ................     ",
"         ..................                                ................     ",
"        .................                                   ................    ",
"        ................                                     ...............    ",
"       ................                                        ..............   ",
"       ..............                                           .............   ",
"      ..............                                            .............   ",
"      .............                                              ............   ",
"     ..............                                              .............  ",
"     .............                                               .............  ",
"    ..............                                               .............  ",
"    .............                                                 ............  ",
"   ..............                                                 ............. ",
"   .............                                                  ............. ",
"  ..............                                                  ............. ",
"  .............                                                    ............ ",
" ..............                                                   ..............",
" .............                                                    ..............",
" .............                                                    ..............",
" ............                                                     ..............",
".............                                                    ...............",
".............                                                    ...............",
".............                                                    ...............",
"............                                                      ............. ",
"............                                                     .............  ",
"............                                                     .............  ",
"............                                                     .............  ",
"...........                                                      ............   ",
"...........                                                     .............   ",
"...........                                                     .............   ",
"...........                                                    ..............   ",
"..........                                                     .............    ",
"...........                                                   ..............    ",
"...........                                                   .............     ",
"...........                                                  ..............     ",
"..........                                                   .............      ",
"...........                                                ...............      ",
"...........                                               ...............       ",
"...........                                              ................       ",
"...........                                              ...............        ",
"............                                            ................        ",
".............                                           ...............         ",
"..............                                         ...............          ",
"..............                                         .............            ",
"................                                     ...............            ",
" ................                                   ...............             ",
"  ................                                 ................             ",
"   .................                             .................              ",
"   ...................                          ..................              ",
"    ....................                       ..................               ",
"     ..................... ... ...         .....................                ",
"       ............................... .......................                  ",
"       .......................................................                  ",
"        .....................................................                   ",
"         ...................................................                    ",
"           ...............................................                      ",
"            .............................................                       ",
"             ...........................................                        ",
"               .......................................                          ",
"                 ....................................                           ",
"                   .................................                            ",
"                     .............................                              ",
"                       ... ... ...............                                  ",
"                                   ... ...                                      "
};
