/* XPM */
static char *bfef3780fd834723f5b99eafdf42a393nls8kSzpoCSproQE[] = {
/* columns rows colors chars-per-pixel */
"80 80 2 1 ",
"  c None",
". c white",
/* pixels */
".........                                                              .........",
"..........                                                            ..........",
"..........                                                            ..........",
"............                                                        ............",
".............                                                      .............",
"..............                                                    ..............",
"..............                                                    ..............",
"................                                                ................",
".................                                              .................",
" .................                                            ................. ",
"   ...............                                            ...............   ",
"   .................                                        .................   ",
"    .................                                      .................    ",
"     .................                                    .................     ",
"       ...............                                    ...............       ",
"       .................                                .................       ",
"        .................                              .................        ",
"         .................                            .................         ",
"           ...............                            ...............           ",
"           .................                        .................           ",
"            .................                      .................            ",
"             .................                    .................             ",
"               ...............                    ...............               ",
"               .................                .................               ",
"                .................              .................                ",
"                 .................            .................                 ",
"                   ...............            ...............                   ",
"                   .................        .................                   ",
"                    .................      .................                    ",
"                     .................    .................                     ",
"                       ...............    ...............                       ",
"                       ..................................                       ",
"                        ................................                        ",
"                         ..............................                         ",
"                           ..........................                           ",
"                           ..........................                           ",
"                            ........................                            ",
"                             ......................                             ",
"                               ..................                               ",
"                               ..................                               ",
"                               ...................                              ",
"                              ....................                              ",
"                              ......................                            ",
"                            .........................                           ",
"                           ...........................                          ",
"                          ............................                          ",
"                          ..............................                        ",
"                        .................................                       ",
"                       ................. .................                      ",
"                      .................    ...............                      ",
"                      ...............      .................                    ",
"                    .................       .................                   ",
"                   .................         .................                  ",
"                  .................            ...............                  ",
"                  ...............              .................                ",
"                .................               .................               ",
"               .................                 .................              ",
"              .................                    ...............              ",
"              ...............                      .................            ",
"            .................                       .................           ",
"           .................                         .................          ",
"          .................                            ...............          ",
"          ...............                              .................        ",
"        .................                               .................       ",
"       .................                                 .................      ",
"      .................                                    ...............      ",
"      ...............                                      .................    ",
"    .................                                       .................   ",
"   .................                                         .................  ",
"  .................                                            ...............  ",
"  ...............                                              .................",
".................                                               ................",
"................                                                 ...............",
"...............                                                    .............",
".............                                                      .............",
".............                                                       ............",
"............                                                         ...........",
"...........                                                            .........",
".........                                                              .........",
".........                                                               ........"
};
